<?xml version="1.0" encoding="utf-8"?>
<!-- Generator: Adobe Illustrator 19.0.0, SVG Export Plug-In . SVG Version: 6.00 Build 0)  -->
<svg version="1.1" id="Layer_1" xmlns="http://www.w3.org/2000/svg" xmlns:xlink="http://www.w3.org/1999/xlink" x="0px" y="0px"
     viewBox="0 0 128 128" style="enable-background:new 0 0 128 128;" xml:space="preserve">
<g id="XMLID_11_">
    <path id="XMLID_9_" d="M34.8,3.9c0-2.2-1.8-4-4-4H4c-2.2,0-4,1.8-4,4v26.8c0,2.2,1.8,4,4,4h26.8c2.2,0,4-1.8,4-4L34.8,3.9L34.8,3.9
        z"/>
    <path id="XMLID_8_" d="M81.2,3.9c0-2.2-1.8-4-4-4H50.4c-2.2,0-4,1.8-4,4v26.8c0,2.2,1.8,4,4,4h26.8c2.2,0,4-1.8,4-4V3.9z"/>
    <path id="XMLID_7_" d="M127.5,3.9c0-2.2-1.8-4-4-4H96.8c-2.2,0-4,1.8-4,4v26.8c0,2.2,1.8,4,4,4h26.8c2.2,0,4-1.8,4-4L127.5,3.9
        L127.5,3.9z"/>
    <path id="XMLID_6_" d="M34.8,50.6c0-2.2-1.8-4-4-4H4c-2.2,0-4,1.8-4,4v26.8c0,2.2,1.8,4,4,4h26.8c2.2,0,4-1.8,4-4L34.8,50.6
        L34.8,50.6L34.8,50.6z"/>
    <path id="XMLID_5_" d="M81.2,50.6c0-2.2-1.8-4-4-4H50.4c-2.2,0-4,1.8-4,4v26.8c0,2.2,1.8,4,4,4h26.8c2.2,0,4-1.8,4-4V50.6z"/>
    <path id="XMLID_4_" d="M127.5,50.6c0-2.2-1.8-4-4-4H96.8c-2.2,0-4,1.8-4,4v26.8c0,2.2,1.8,4,4,4h26.8c2.2,0,4-1.8,4-4L127.5,50.6
        L127.5,50.6L127.5,50.6z"/>
    <path id="XMLID_3_" d="M30.8,93.2H4c-2.2,0-4,1.8-4,4V124c0,2.2,1.8,4,4,4h26.8c2.2,0,4-1.8,4-4V97.2C34.8,95,33,93.2,30.8,93.2z"
        />
    <path id="XMLID_2_" d="M77.2,93.2H50.4c-2.2,0-4,1.8-4,4V124c0,2.2,1.8,4,4,4h26.8c2.2,0,4-1.8,4-4V97.2
        C81.2,95,79.4,93.2,77.2,93.2z"/>
    <path id="XMLID_1_" d="M123.6,93.2H96.8c-2.2,0-4,1.8-4,4V124c0,2.2,1.8,4,4,4h26.8c2.2,0,4-1.8,4-4V97.2
        C127.5,95,125.8,93.2,123.6,93.2z"/>
</g>
</svg>
