<?xml version="1.0" encoding="utf-8"?>
<!-- Generator: Adobe Illustrator 18.1.1, SVG Export Plug-In . SVG Version: 6.00 Build 0)  -->
<svg version="1.1" id="Layer_1" xmlns="http://www.w3.org/2000/svg" xmlns:xlink="http://www.w3.org/1999/xlink" x="0px" y="0px"
	 viewBox="0 0 128 128" enable-background="new 0 0 128 128" xml:space="preserve">
<path d="M21.745,21.428H8.124c-2.739,0-4.959,2.241-4.959,5.007c0,2.766,2.219,5.006,4.959,5.006h13.621
	c2.739,0,4.959-2.241,4.959-5.006C26.703,23.669,24.484,21.428,21.745,21.428z"/>
<path d="M21.745,57.253H8.904c-2.739,0-4.958,2.24-4.958,5.006c0,2.767,2.219,5.007,4.958,5.007h12.841
	c2.739,0,4.959-2.241,4.959-5.007C26.703,59.493,24.484,57.253,21.745,57.253z"/>
<path d="M21.745,39.34H4.945c-2.74,0-4.959,2.241-4.959,5.007c0,2.766,2.219,5.006,4.959,5.006h16.799
	c2.739,0,4.959-2.24,4.959-5.006C26.703,41.581,24.484,39.34,21.745,39.34z"/>
<path d="M21.745,75.178H4.945c-2.74,0-4.959,2.24-4.959,5.006c0,2.766,2.219,5.007,4.959,5.007h16.799
	c2.739,0,4.959-2.241,4.959-5.007C26.703,77.417,24.484,75.178,21.745,75.178z"/>
<path d="M21.745,93.09H4.945c-2.74,0-4.959,2.241-4.959,5.007c0,2.767,2.219,5.006,4.959,5.006h16.799
	c2.739,0,4.959-2.24,4.959-5.006C26.703,95.331,24.484,93.09,21.745,93.09z"/>
<path d="M87.072,20.877H43.14c-4.103,0-7.437,3.368-7.437,7.511V96.77c0,4.143,3.334,7.511,7.437,7.511h43.931
	c4.103,0,7.438-3.367,7.438-7.511V28.388C94.51,24.232,91.187,20.877,87.072,20.877z"/>
<path d="M106.112,21.428h13.621c2.739,0,4.959,2.241,4.959,5.007c0,2.766-2.219,5.006-4.959,5.006h-13.621
	c-2.739,0-4.959-2.241-4.959-5.006C101.153,23.669,103.372,21.428,106.112,21.428z"/>
<path d="M106.112,57.253h12.841c2.739,0,4.959,2.24,4.959,5.006c0,2.767-2.219,5.007-4.959,5.007h-12.841
	c-2.739,0-4.959-2.241-4.959-5.007C101.153,59.493,103.372,57.253,106.112,57.253z"/>
<path d="M106.112,39.34h16.8c2.739,0,4.958,2.241,4.958,5.007c0,2.766-2.219,5.006-4.958,5.006h-16.8
	c-2.739,0-4.959-2.24-4.959-5.006C101.153,41.581,103.372,39.34,106.112,39.34z"/>
<path d="M106.112,75.178h16.8c2.739,0,4.958,2.24,4.958,5.006c0,2.766-2.219,5.007-4.958,5.007h-16.8
	c-2.739,0-4.959-2.241-4.959-5.007C101.153,77.417,103.372,75.178,106.112,75.178z"/>
<path d="M106.112,93.09h16.8c2.739,0,4.958,2.241,4.958,5.007c0,2.767-2.219,5.006-4.958,5.006h-16.8
	c-2.739,0-4.959-2.24-4.959-5.006C101.153,95.331,103.372,93.09,106.112,93.09z"/>
</svg>
