<?xml version="1.0" encoding="iso-8859-1"?>
<!-- Generator: Adobe Illustrator 16.0.0, SVG Export Plug-In . SVG Version: 6.00 Build 0)  -->
<!DOCTYPE svg PUBLIC "-//W3C//DTD SVG 1.1//EN" "http://www.w3.org/Graphics/SVG/1.1/DTD/svg11.dtd">
<svg version="1.1" id="Capa_1" xmlns="http://www.w3.org/2000/svg" xmlns:xlink="http://www.w3.org/1999/xlink" x="0px" y="0px"
     width="612px" height="612px" viewBox="0 0 612 612" style="enable-background:new 0 0 612 612;" xml:space="preserve">
<g>
    <g>
        <path d="M25.175,87.659h561.65c14.188,0,25.175-10.986,25.175-25.175c0-14.189-10.986-25.634-25.175-25.634H25.175
            C10.986,36.85,0,48.294,0,62.484C0,76.672,10.986,87.659,25.175,87.659z" fill="white"/>
        <path d="M586.825,199.344H25.175C10.986,199.344,0,210.33,0,224.519s10.986,25.175,25.175,25.175h561.65
            c14.188,0,25.175-10.986,25.175-25.175S601.014,199.344,586.825,199.344z" fill="white"/>
        <path d="M586.825,361.389H25.175C10.986,361.389,0,373.283,0,387.473c0,13.281,10.986,25.633,25.175,25.633h561.65
            c14.188,0,25.175-12.352,25.175-25.633C612,373.283,601.014,361.389,586.825,361.389z" fill="white"/>
        <path d="M586.825,524.342H25.175C10.986,524.342,0,535.787,0,549.977s10.986,25.174,25.175,25.174h561.65
            c14.188,0,25.175-10.984,25.175-25.174S601.014,524.342,586.825,524.342z" fill="white"/>
    </g>
</g>
</svg>
