<?xml version="1.0" encoding="utf-8"?>
<!-- Generator: Adobe Illustrator 18.1.1, SVG Export Plug-In . SVG Version: 6.00 Build 0)  -->
<svg version="1.1" id="Layer_1" xmlns="http://www.w3.org/2000/svg" xmlns:xlink="http://www.w3.org/1999/xlink" x="0px" y="0px"
	 viewBox="0 0 128 128" enable-background="new 0 0 128 128" xml:space="preserve">
<path d="M51.944,20.579H14.506c-2.861,0-5.177,2.34-5.177,5.228c0,2.887,2.316,5.227,5.177,5.227h37.438
	c2.86,0,5.177-2.339,5.177-5.227C57.121,22.918,54.804,20.579,51.944,20.579z"/>
<path d="M51.944,57.979H26.93c-2.861,0-5.177,2.338-5.177,5.226c0,2.888,2.316,5.228,5.177,5.228h25.015
	c2.86,0,5.177-2.339,5.177-5.228C57.121,60.317,54.804,57.979,51.944,57.979z"/>
<path d="M51.944,39.278H5.383c-2.861,0-5.177,2.339-5.177,5.228c0,2.888,2.316,5.227,5.177,5.227h46.562
	c2.86,0,5.177-2.339,5.177-5.227C57.121,41.618,54.804,39.278,51.944,39.278z"/>
<path d="M51.944,76.692H5.383c-2.861,0-5.177,2.338-5.177,5.227c0,2.888,2.316,5.228,5.177,5.228h46.562
	c2.86,0,5.177-2.34,5.177-5.228C57.121,79.03,54.804,76.692,51.944,76.692z"/>
<path d="M51.944,95.392H5.383c-2.861,0-5.177,2.339-5.177,5.227c0,2.888,2.316,5.227,5.177,5.227h46.562
	c2.86,0,5.177-2.338,5.177-5.227C57.121,97.731,54.804,95.392,51.944,95.392z"/>
<path d="M120.144,20.003H74.281c-4.284,0-7.765,3.516-7.765,7.841v71.389c0,4.326,3.481,7.841,7.765,7.841h45.863
	c4.283,0,7.764-3.515,7.764-7.841V27.844C127.908,23.506,124.441,20.003,120.144,20.003z"/>
</svg>
