<?xml version="1.0" encoding="utf-8"?>
<!-- Generator: Adobe Illustrator 19.0.0, SVG Export Plug-In . SVG Version: 6.00 Build 0)  -->
<svg version="1.1" id="Layer_1" xmlns="http://www.w3.org/2000/svg" xmlns:xlink="http://www.w3.org/1999/xlink" x="0px" y="0px"
     viewBox="0 0 128 128" style="enable-background:new 0 0 128 128;" xml:space="preserve">
<g id="XMLID_3_">
    <path id="XMLID_1_" d="M123.7,25.2L84.9,64l38.8,38.8c5.8,5.8,5.8,15.1,0,20.9c-2.9,2.9-6.7,4.3-10.4,4.3c-3.8,0-7.6-1.4-10.4-4.3
        L64,84.9l-38.8,38.8c-2.9,2.9-6.7,4.3-10.4,4.3c-3.8,0-7.6-1.4-10.4-4.3c-5.8-5.8-5.8-15.1,0-20.9L43.1,64L4.3,25.2
        c-5.8-5.8-5.8-15.1,0-20.9c5.8-5.8,15.1-5.8,20.9,0L64,43.1l38.8-38.8c5.8-5.8,15.1-5.8,20.9,0C129.4,10.1,129.4,19.4,123.7,25.2z"
        />
</g>
</svg>
