<?xml version="1.0" encoding="iso-8859-1"?>
<!-- Generator: Adobe Illustrator 16.0.0, SVG Export Plug-In . SVG Version: 6.00 Build 0)  -->
<!DOCTYPE svg PUBLIC "-//W3C//DTD SVG 1.1//EN" "http://www.w3.org/Graphics/SVG/1.1/DTD/svg11.dtd">
<svg version="1.1" id="Capa_1" xmlns="http://www.w3.org/2000/svg" xmlns:xlink="http://www.w3.org/1999/xlink" x="0px" y="0px"
     width="615.66px" height="615.66px" viewBox="0 0 615.66 615.66" style="enable-background:new 0 0 615.66 615.66;"
     xml:space="preserve">
<g>
    <g>
        <path d="M588.216,113.437h-350.36c-14.188,0-25.166,11.436-25.166,25.615c0,14.178,10.978,25.156,25.166,25.156h350.36
            c14.178,0,25.614-10.978,25.614-25.156C613.83,124.873,602.394,113.437,588.216,113.437z" fill="white"/>
        <path d="M588.216,339.393h-350.36c-14.188,0-25.166,10.977-25.166,25.154c0,14.18,10.978,25.156,25.166,25.156h350.36
            c14.178,0,25.614-10.977,25.614-25.156C613.83,350.369,602.394,339.393,588.216,339.393z" fill="white"/>
        <path d="M588.216,564.889h-350.36c-14.188,0-25.166,11.436-25.166,25.615c0,14.178,10.978,25.156,25.166,25.156h350.36
            c14.178,0,25.614-10.979,25.614-25.156C613.83,576.324,602.394,564.889,588.216,564.889z" fill="white"/>
        <path d="M27.445,50.771h560.771c14.178,0,25.614-10.978,25.614-25.156C613.83,12.354,602.394,0,588.216,0H27.445
            C13.267,0,1.83,12.354,1.83,25.615C1.83,39.793,13.267,50.771,27.445,50.771z" fill="white"/>
        <path d="M588.216,225.956H27.445c-14.178,0-25.615,10.978-25.615,25.156s11.437,25.615,25.615,25.615h560.771
            c14.178,0,25.614-11.437,25.614-25.615S602.394,225.956,588.216,225.956z" fill="white"/>
        <path d="M588.216,451.91H27.445c-14.178,0-25.615,10.979-25.615,25.156c0,14.18,11.437,25.156,25.615,25.156h560.771
            c14.178,0,25.614-10.977,25.614-25.156C613.83,462.889,602.394,451.91,588.216,451.91z" fill="white"/>
    </g>
</g>
</svg>
