<?xml version="1.0" encoding="iso-8859-1"?>
<!-- Generator: Adobe Illustrator 16.0.0, SVG Export Plug-In . SVG Version: 6.00 Build 0)  -->
<!DOCTYPE svg PUBLIC "-//W3C//DTD SVG 1.1//EN" "http://www.w3.org/Graphics/SVG/1.1/DTD/svg11.dtd">
<svg version="1.1" id="Capa_1" xmlns="http://www.w3.org/2000/svg" xmlns:xlink="http://www.w3.org/1999/xlink" x="0px" y="0px"
     width="612px" height="612px" viewBox="0 0 612 612" style="enable-background:new 0 0 612 612;" xml:space="preserve">
<g>
    <g>
        <path d="M581.347,146.42H453.089l-4.336-30.646l-3.326-20.661c-1.343-8.323-5.75-15.224-12.665-20.988
            c-7.079-5.899-14.655-8.991-22.985-8.991H201.228c-8.33,0-15.991,2.992-22.992,8.991c-6.994,5.999-10.711,13.035-11.99,20.988
            l-3.333,20.661l-4.663,30.646H30.654C13.66,146.42,0,160.081,0,176.406v339.812c0,16.986,13.66,30.646,30.654,30.646h550.693
            c16.993,0,30.653-13.66,30.653-30.646V176.406C612,160.081,598.34,146.42,581.347,146.42z M575.021,509.887H36.652V183.065H158.25
            c18.323,0,34.144-13.632,36.645-31.314l4.329-30.646l3.333-18.991h206.551l3,18.991l4.662,30.646
            c2.687,17.654,18.656,31.314,36.318,31.314h121.932V509.887z"/>
        <path d="M515.718,270.016c15.991,0,29.317-13.653,29.317-29.644c0-16.326-12.992-29.986-29.317-29.986
            s-29.317,13.66-29.317,29.986C486.4,256.363,499.727,270.016,515.718,270.016z"/>
        <path d="M305.499,192.731c-37.64,0-70.291,13.653-97.277,40.639s-40.646,59.637-40.646,97.285c0,37.64,13.66,70.291,40.646,97.277
            s59.637,39.751,97.277,40.312c74.634,1.102,138.805-63.625,137.924-137.59c-0.448-37.981-13.66-70.298-40.64-97.285
            C375.797,206.384,343.48,192.731,305.499,192.731z M376.792,402.282c-19.651,19.651-43.305,29.311-71.293,29.311
            c-27.647,0-51.3-9.659-70.959-29.311c-19.659-19.659-29.317-43.646-29.317-71.627c0-27.654,9.659-51.642,29.317-71.3
            c19.659-19.652,43.312-29.645,70.959-29.645c27.988,0,51.642,9.993,71.293,29.645c19.658,19.659,29.651,43.646,29.651,71.3
            C406.443,358.637,396.45,382.623,376.792,402.282z"/>
    </g>
</g>
</svg>
