<?xml version="1.0" encoding="utf-8"?>
<!-- Generator: Adobe Illustrator 19.1.0, SVG Export Plug-In . SVG Version: 6.00 Build 0)  -->
<svg version="1.1" id="Layer_1" xmlns="http://www.w3.org/2000/svg" xmlns:xlink="http://www.w3.org/1999/xlink" x="0px" y="0px"
     viewBox="-241 333 128 128" style="enable-background:new -241 333 128 128;" xml:space="preserve">
<path d="M-227.1,360.4H-239c-1.1,0-2-0.9-2-2l0,0c0-1.1,0.9-2,2-2h11.9c1.1,0,2,0.9,2,2l0,0C-225.1,359.5-226,360.4-227.1,360.4z"/>
<path d="M-241,370.2v-11.9c0-1.1,0.9-2,2-2l0,0c1.1,0,2,0.9,2,2v11.9c0,1.1-0.9,2-2,2l0,0C-240.1,372.2-241,371.3-241,370.2z"/>
<path d="M-237,423.8v11.9c0,1.1-0.9,2-2,2l0,0c-1.1,0-2-0.9-2-2v-11.9c0-1.1,0.9-2,2-2l0,0C-237.9,421.8-237,422.7-237,423.8z"/>
<path d="M-227.1,437.6H-239c-1.1,0-2-0.9-2-2l0,0c0-1.1,0.9-2,2-2h11.9c1.1,0,2,0.9,2,2l0,0C-225.1,436.7-226,437.6-227.1,437.6z"/>
<path d="M-126.9,360.4h11.9c1.1,0,2-0.9,2-2l0,0c0-1.1-0.9-2-2-2h-11.9c-1.1,0-2,0.9-2,2l0,0C-128.9,359.5-128,360.4-126.9,360.4z"
    />
<path d="M-113,370.2v-11.9c0-1.1-0.9-2-2-2l0,0c-1.1,0-2,0.9-2,2v11.9c0,1.1,0.9,2,2,2l0,0C-113.9,372.2-113,371.3-113,370.2z"/>
<path d="M-117,423.8v11.9c0,1.1,0.9,2,2,2l0,0c1.1,0,2-0.9,2-2v-11.9c0-1.1-0.9-2-2-2l0,0C-116.1,421.8-117,422.7-117,423.8z"/>
<path d="M-126.9,437.6h11.9c1.1,0,2-0.9,2-2l0,0c0-1.1-0.9-2-2-2h-11.9c-1.1,0-2,0.9-2,2l0,0C-128.9,436.7-128,437.6-126.9,437.6z"
    />
<path d="M-124.2,429h-105.4c-1.1,0-2-0.9-2-2v-59.7c0-1.1,0.9-2,2-2h105.4c1.1,0,2,0.9,2,2V427C-122.2,428.1-123.1,429-124.2,429z"
    />
</svg>
