<?xml version="1.0" encoding="utf-8"?>
<!-- Generator: Adobe Illustrator 19.1.0, SVG Export Plug-In . SVG Version: 6.00 Build 0)  -->
<svg version="1.1" id="Layer_1" xmlns="http://www.w3.org/2000/svg" xmlns:xlink="http://www.w3.org/1999/xlink" x="0px" y="0px"
     viewBox="0 0 128 128" style="enable-background:new 0 0 128 128;" xml:space="preserve">
<path d="M13.9,27.4H2c-1.1,0-2-0.9-2-2l0,0c0-1.1,0.9-2,2-2h11.9c1.1,0,2,0.9,2,2l0,0C15.9,26.5,15,27.4,13.9,27.4z"/>
<path d="M0,38.2V26.3c0-1.1,0.9-2,2-2l0,0c1.1,0,2,0.9,2,2v11.9c0,1.1-0.9,2-2,2l0,0C0.9,40.2,0,39.3,0,38.2z"/>
<path d="M4,89.8v11.9c0,1.1-0.9,2-2,2l0,0c-1.1,0-2-0.9-2-2V89.8c0-1.1,0.9-2,2-2l0,0C3.1,87.8,4,88.7,4,89.8z"/>
<path d="M13.9,104.6H2c-1.1,0-2-0.9-2-2l0,0c0-1.1,0.9-2,2-2h11.9c1.1,0,2,0.9,2,2l0,0C15.9,103.7,15,104.6,13.9,104.6z"/>
<path d="M114.1,27.4H126c1.1,0,2-0.9,2-2l0,0c0-1.1-0.9-2-2-2h-11.9c-1.1,0-2,0.9-2,2l0,0C112.1,26.5,113,27.4,114.1,27.4z"/>
<path d="M128,38.2V26.3c0-1.1-0.9-2-2-2l0,0c-1.1,0-2,0.9-2,2v11.9c0,1.1,0.9,2,2,2l0,0C127.1,40.2,128,39.3,128,38.2z"/>
<path d="M124,89.8v11.9c0,1.1,0.9,2,2,2l0,0c1.1,0,2-0.9,2-2V89.8c0-1.1-0.9-2-2-2l0,0C124.9,87.8,124,88.7,124,89.8z"/>
<path d="M114.1,104.6H126c1.1,0,2-0.9,2-2l0,0c0-1.1-0.9-2-2-2h-11.9c-1.1,0-2,0.9-2,2l0,0C112.1,103.7,113,104.6,114.1,104.6z"/>
<path d="M116.8,96H11.4c-1.1,0-2-0.9-2-2V34.3c0-1.1,0.9-2,2-2h105.4c1.1,0,2,0.9,2,2V94C118.8,95.1,117.9,96,116.8,96z"/>
</svg>
