<?xml version="1.0" encoding="utf-8"?>
<!-- Generator: Adobe Illustrator 18.1.1, SVG Export Plug-In . SVG Version: 6.00 Build 0)  -->
<svg version="1.1" id="Layer_1" xmlns="http://www.w3.org/2000/svg" xmlns:xlink="http://www.w3.org/1999/xlink" x="0px" y="0px"
	 viewBox="0 0 128 128" enable-background="new 0 0 128 128" xml:space="preserve">
<path d="M76.17,20.579h37.438c2.861,0,5.177,2.34,5.177,5.228c0,2.887-2.316,5.227-5.177,5.227H76.17
	c-2.86,0-5.176-2.339-5.176-5.227C70.994,22.918,73.31,20.579,76.17,20.579z"/>
<path d="M76.17,57.979h25.015c2.86,0,5.176,2.338,5.176,5.226c0,2.888-2.316,5.228-5.176,5.228H76.17
	c-2.86,0-5.176-2.339-5.176-5.228C70.994,60.317,73.31,57.979,76.17,57.979z"/>
<path d="M76.17,39.278h46.562c2.861,0,5.177,2.339,5.177,5.228c0,2.888-2.316,5.227-5.177,5.227H76.17
	c-2.86,0-5.176-2.339-5.176-5.227C70.994,41.618,73.31,39.278,76.17,39.278z"/>
<path d="M76.17,76.692h46.562c2.861,0,5.177,2.338,5.177,5.227c0,2.888-2.316,5.228-5.177,5.228H76.17
	c-2.86,0-5.176-2.34-5.176-5.228C70.994,79.03,73.31,76.692,76.17,76.692z"/>
<path d="M76.17,95.392h46.562c2.861,0,5.177,2.339,5.177,5.227c0,2.888-2.316,5.227-5.177,5.227H76.17
	c-2.86,0-5.176-2.338-5.176-5.227C70.994,97.731,73.31,95.392,76.17,95.392z"/>
<path d="M7.97,20.003h45.863c4.284,0,7.765,3.516,7.765,7.841v71.389c0,4.326-3.481,7.841-7.765,7.841H7.97
	c-4.283,0-7.764-3.515-7.764-7.841V27.844C0.206,23.506,3.674,20.003,7.97,20.003z"/>
</svg>
